<svg width="128" height="128" viewBox="0 0 128 128" fill="none" xmlns="http://www.w3.org/2000/svg">
<path d="M59.1938 8.62878L99.6812 29.8007H99.939V29.9354L99.9702 29.952L99.939 30.0116V46.7323H99.8921L83.3013 55.2255L100.583 67.4315L100.333 67.785V97.3944H100.328L100.344 97.4276L57.3569 119.435L57.064 118.863L29.9829 102.386L30.0649 102.251H29.9829V69.3065H30.1665L88.2583 39.5653V37.0087L58.9956 21.7059L39.564 31.6552V57.6259H27.8833V24.6815H27.9692L27.8823 24.5126L58.9966 8.58289L59.021 8.53796L59.0522 8.55457L59.1353 8.51257L59.1938 8.62878ZM41.6646 76.5428V95.8202L58.1987 105.881L88.6519 90.2909V73.3046L71.563 61.2352L41.6646 76.5428Z" fill="#0258E5"/>
</svg>
