<svg width="1076" height="303" viewBox="0 0 1076 303" fill="none" xmlns="http://www.w3.org/2000/svg">
<path d="M83.5 3.91406L191.461 60.3701H192.15V60.7305L192.232 60.7734L192.15 60.9297V105.521H192.028L147.784 128.171L193.868 160.72L193.2 161.665V240.62H193.183L193.229 240.71L78.5957 299.397L77.8145 297.871L5.60059 253.932L5.82031 253.57H5.60059V165.971L5.59961 165.97L5.60059 165.969V165.721H6.08594L161 86.4102V79.5928L82.9678 38.7881L31.1504 65.3174V134.57H0V46.7207H0.230469L0 46.2705L82.9717 3.79102L83.0352 3.6709L83.1201 3.71484L83.3408 3.60254L83.5 3.91406ZM36.75 185.017V236.422L80.8428 263.251L162.05 221.677V176.383L116.479 144.197L36.75 185.017Z" fill="#0258E5"/>
<path d="M287.212 244V216.028H333.328C341.56 216.028 347.944 213.508 352.48 208.468C357.184 203.428 359.536 197.464 359.536 190.576C359.536 185.872 358.528 181.588 356.512 177.724C354.496 173.86 351.472 170.836 347.44 168.652C343.576 166.3 338.872 165.124 333.328 165.124H287.212V137.404H329.548C336.604 137.404 342.232 135.64 346.432 132.112C350.8 128.584 352.984 123.292 352.984 116.236C352.984 109.012 350.8 103.636 346.432 100.108C342.232 96.58 336.604 94.816 329.548 94.816H287.212V66.844H333.58C345.34 66.844 355.168 69.028 363.064 73.396C371.128 77.596 377.176 83.224 381.208 90.28C385.24 97.168 387.256 104.728 387.256 112.96C387.256 123.04 384.148 131.776 377.932 139.168C371.884 146.392 362.98 151.768 351.22 155.296L352.732 144.208C365.836 147.904 375.916 154.036 382.972 162.604C390.196 171.004 393.808 181.168 393.808 193.096C393.808 202.504 391.456 211.072 386.752 218.8C382.216 226.36 375.496 232.492 366.592 237.196C357.856 241.732 347.188 244 334.588 244H287.212ZM262.012 244V66.844H296.032V244H262.012ZM469.373 246.52C458.621 246.52 449.045 244.252 440.645 239.716C432.413 235.18 425.945 228.88 421.241 220.816C416.537 212.752 414.185 203.428 414.185 192.844V122.284H447.449V192.088C447.449 197.128 448.289 201.496 449.969 205.192C451.649 208.72 454.169 211.408 457.529 213.256C460.889 215.104 464.837 216.028 469.373 216.028C476.261 216.028 481.637 213.928 485.501 209.728C489.365 205.528 491.297 199.648 491.297 192.088V122.284H524.309V192.844C524.309 203.596 521.957 213.004 517.253 221.068C512.717 229.132 506.249 235.432 497.849 239.968C489.617 244.336 480.125 246.52 469.373 246.52ZM550.597 244V122.284H583.861V244H550.597ZM567.229 102.628C561.853 102.628 557.401 100.864 553.873 97.336C550.345 93.64 548.581 89.104 548.581 83.728C548.581 78.52 550.345 74.068 553.873 70.372C557.401 66.676 561.853 64.828 567.229 64.828C572.773 64.828 577.225 66.676 580.585 70.372C584.113 74.068 585.877 78.52 585.877 83.728C585.877 89.104 584.113 93.64 580.585 97.336C577.225 100.864 572.773 102.628 567.229 102.628ZM613.105 244V61.804H646.117V244H613.105ZM726.775 246.52C715.519 246.52 705.439 243.748 696.535 238.204C687.631 232.66 680.575 225.1 675.367 215.524C670.327 205.948 667.807 195.196 667.807 183.268C667.807 171.172 670.327 160.336 675.367 150.76C680.575 141.184 687.547 133.624 696.283 128.08C705.187 122.536 715.351 119.764 726.775 119.764C735.511 119.764 743.323 121.528 750.211 125.056C757.267 128.584 762.895 133.54 767.095 139.924C771.463 146.14 773.815 153.196 774.151 161.092V204.436C773.815 212.332 771.547 219.472 767.347 225.856C763.147 232.24 757.519 237.28 750.463 240.976C743.407 244.672 735.511 246.52 726.775 246.52ZM732.319 216.028C738.535 216.028 743.911 214.684 748.447 211.996C753.151 209.14 756.763 205.276 759.283 200.404C761.971 195.364 763.315 189.568 763.315 183.016C763.315 176.632 761.971 171.004 759.283 166.132C756.763 161.092 753.151 157.228 748.447 154.54C743.911 151.684 738.619 150.256 732.571 150.256C726.355 150.256 720.895 151.684 716.191 154.54C711.655 157.396 708.043 161.26 705.355 166.132C702.835 171.004 701.575 176.632 701.575 183.016C701.575 189.568 702.835 195.364 705.355 200.404C708.043 205.276 711.739 209.14 716.443 211.996C721.147 214.684 726.439 216.028 732.319 216.028ZM794.311 244H761.551V211.24L766.843 181.504L761.299 152.272V61.804H794.311V244ZM881.727 246.52C868.959 246.52 857.619 243.832 847.707 238.456C837.795 232.912 829.899 225.352 824.019 215.776C818.307 206.2 815.451 195.28 815.451 183.016C815.451 170.92 818.223 160.168 823.767 150.76C829.479 141.184 837.207 133.624 846.951 128.08C856.695 122.368 867.531 119.512 879.459 119.512C891.219 119.512 901.551 122.2 910.455 127.576C919.527 132.784 926.583 140.008 931.623 149.248C936.831 158.32 939.435 168.652 939.435 180.244C939.435 182.428 939.267 184.696 938.931 187.048C938.763 189.232 938.343 191.752 937.671 194.608L835.359 194.86V170.164L922.299 169.912L908.943 180.244C908.607 173.02 907.263 166.972 904.911 162.1C902.727 157.228 899.451 153.532 895.083 151.012C890.883 148.324 885.675 146.98 879.459 146.98C872.907 146.98 867.195 148.492 862.323 151.516C857.451 154.372 853.671 158.488 850.983 163.864C848.463 169.072 847.203 175.288 847.203 182.512C847.203 189.904 848.547 196.372 851.235 201.916C854.091 207.292 858.123 211.492 863.331 214.516C868.539 217.372 874.587 218.8 881.475 218.8C887.691 218.8 893.319 217.792 898.359 215.776C903.399 213.592 907.767 210.4 911.463 206.2L930.867 225.604C924.987 232.492 917.763 237.7 909.195 241.228C900.795 244.756 891.639 246.52 881.727 246.52ZM997.447 244L943.771 122.284H980.059L1018.61 222.58H1000.72L1039.53 122.284H1074.56L1021.13 244H997.447Z" fill="white"/>
</svg>
